<svg width="476" height="334" viewBox="0 0 476 334" fill="none" xmlns="http://www.w3.org/2000/svg">
<path d="M129.818 303.636H21.6364V273.273H43.2727V258.091H64.9091V242.909H86.5454V212.545H64.9091V121.455H86.5454V106.273H108.182V91.0909H129.818V75.9091H173.091V60.7273H346.182V75.9091H389.454V91.0909H411.091V106.273H432.727V121.455H454.364V212.545H432.727V227.727H411.091V242.909H389.454V258.091H346.182V273.273H173.091V288.455H129.818M129.818 273.273V258.091H151.455V242.909H324.545V227.727H367.818V212.545H389.454V197.364H411.091V136.636H389.454V121.455H367.818V106.273H324.545V91.0909H194.727V106.273H151.455V121.455H129.818V136.636H108.182V197.364H129.818V242.909H108.182V258.091H86.5454V273.273H129.818Z" fill="#F8F8F8"/>
<path d="M185.16 158L185.49 137H187.62L187.11 153.68L193.17 137H195.45L195.75 153.8L201.12 137H203.31L196.26 158H193.83L193.71 140.9L187.59 158H185.16ZM200.748 158L211.128 137H213.588L216.588 158H214.368L213.648 152.66H205.788L203.238 158H200.748ZM211.848 139.94L206.628 150.86H213.408L211.968 139.94H211.848ZM220.237 158L223.957 137H230.017C232.037 137 233.577 137.49 234.637 138.47C235.717 139.45 236.257 140.74 236.257 142.34C236.257 144.04 235.747 145.47 234.727 146.63C233.727 147.79 232.337 148.56 230.557 148.94L233.737 158H231.427L228.397 149.21C228.277 149.21 228.147 149.21 228.007 149.21H223.897L222.337 158H220.237ZM224.227 147.26H228.277C230.097 147.26 231.517 146.83 232.537 145.97C233.557 145.09 234.067 143.92 234.067 142.46C234.067 141.36 233.727 140.5 233.047 139.88C232.367 139.24 231.257 138.92 229.717 138.92H225.697L224.227 147.26ZM237.445 158L241.165 137H243.445L250.345 154.58L253.465 137H255.565L251.845 158H249.565L242.665 140.39L239.545 158H237.445ZM256.663 158L256.993 156.2H261.913L264.973 138.8H260.053L260.383 137H272.323L271.993 138.8H267.073L264.013 156.2H268.933L268.603 158H256.663ZM273.421 158L277.141 137H279.421L286.321 154.58L289.441 137H291.541L287.821 158H285.541L278.641 140.39L275.521 158H273.421ZM298.61 158.36C296.73 158.36 295.23 157.62 294.11 156.14C293.01 154.66 292.46 152.56 292.46 149.84C292.46 148.22 292.68 146.63 293.12 145.07C293.58 143.49 294.24 142.07 295.1 140.81C295.96 139.53 297.01 138.52 298.25 137.78C299.51 137.02 300.95 136.64 302.57 136.64C303.87 136.64 304.95 136.93 305.81 137.51C306.69 138.07 307.35 138.83 307.79 139.79C308.23 140.75 308.45 141.82 308.45 143H306.11C306.07 141.72 305.73 140.67 305.09 139.85C304.47 139.03 303.51 138.62 302.21 138.62C300.95 138.62 299.85 138.95 298.91 139.61C297.97 140.27 297.18 141.14 296.54 142.22C295.92 143.28 295.45 144.45 295.13 145.73C294.81 147.01 294.65 148.28 294.65 149.54C294.65 151.72 295.03 153.41 295.79 154.61C296.55 155.79 297.59 156.38 298.91 156.38C299.85 156.38 300.69 156.16 301.43 155.72C302.17 155.26 302.81 154.67 303.35 153.95C303.89 153.23 304.34 152.44 304.7 151.58C305.06 150.72 305.33 149.87 305.51 149.03H300.62L300.95 147.17H308L306.08 158H304.16L304.52 155H304.4C303.88 155.98 303.14 156.79 302.18 157.43C301.24 158.05 300.05 158.36 298.61 158.36ZM334.766 150.65L336.926 137H339.446L336.776 150.65H334.766ZM334.946 158C334.406 158 333.936 157.81 333.536 157.43C333.156 157.03 332.966 156.56 332.966 156.02C332.966 155.48 333.156 155.02 333.536 154.64C333.936 154.24 334.406 154.04 334.946 154.04C335.486 154.04 335.946 154.24 336.326 154.64C336.726 155.02 336.926 155.48 336.926 156.02C336.926 156.56 336.726 157.03 336.326 157.43C335.946 157.81 335.486 158 334.946 158Z" fill="#FF994E"/>
<path d="M147.16 201.36C145.66 201.36 144.38 201.09 143.32 200.55C142.26 200.01 141.37 199.25 140.65 198.27L142.36 196.89C142.98 197.73 143.69 198.35 144.49 198.75C145.31 199.13 146.26 199.32 147.34 199.32C148.54 199.32 149.45 199.09 150.07 198.63C150.71 198.17 151.03 197.49 151.03 196.59C151.03 195.83 150.78 195.24 150.28 194.82C149.8 194.38 149.02 194.08 147.94 193.92L146.53 193.71C145.89 193.61 145.26 193.47 144.64 193.29C144.02 193.11 143.45 192.85 142.93 192.51C142.43 192.17 142.02 191.72 141.7 191.16C141.4 190.6 141.25 189.9 141.25 189.06C141.25 188.28 141.39 187.59 141.67 186.99C141.97 186.39 142.38 185.89 142.9 185.49C143.44 185.09 144.07 184.79 144.79 184.59C145.51 184.37 146.29 184.26 147.13 184.26C148.55 184.26 149.73 184.5 150.67 184.98C151.63 185.44 152.43 186.05 153.07 186.81L151.54 188.25C151.1 187.73 150.51 187.28 149.77 186.9C149.03 186.5 148.13 186.3 147.07 186.3C145.95 186.3 145.09 186.53 144.49 186.99C143.89 187.45 143.59 188.09 143.59 188.91C143.59 189.79 143.88 190.41 144.46 190.77C145.04 191.13 145.84 191.39 146.86 191.55L148.27 191.76C149.01 191.88 149.69 192.04 150.31 192.24C150.93 192.44 151.46 192.72 151.9 193.08C152.36 193.44 152.72 193.89 152.98 194.43C153.24 194.95 153.37 195.59 153.37 196.35C153.37 197.91 152.81 199.14 151.69 200.04C150.59 200.92 149.08 201.36 147.16 201.36ZM160.097 198C159.197 198 158.537 197.78 158.117 197.34C157.697 196.9 157.487 196.32 157.487 195.6V194.31H159.887V195.93H165.077V198H160.097ZM160.097 190.29C159.197 190.29 158.537 190.07 158.117 189.63C157.697 189.19 157.487 188.61 157.487 187.89V186.6H159.887V188.22H165.077V190.29H160.097ZM174.535 201.36C173.755 201.36 173.005 201.26 172.285 201.06C171.565 200.88 170.945 200.62 170.425 200.28L171.325 198.51C172.185 199.03 173.235 199.29 174.475 199.29C175.855 199.29 176.925 198.83 177.685 197.91C178.445 196.97 178.825 195.68 178.825 194.04V191.58C178.825 189.96 178.455 188.68 177.715 187.74C176.995 186.8 175.915 186.33 174.475 186.33C173.395 186.33 172.505 186.56 171.805 187.02C171.105 187.46 170.565 188.08 170.185 188.88L168.235 187.89C168.735 186.81 169.505 185.94 170.545 185.28C171.585 184.6 172.915 184.26 174.535 184.26C176.775 184.26 178.475 185.02 179.635 186.54C180.815 188.04 181.405 190.13 181.405 192.81C181.405 195.49 180.805 197.59 179.605 199.11C178.405 200.61 176.715 201.36 174.535 201.36ZM178.228 181.41C177.328 181.41 176.668 181.19 176.248 180.75C175.828 180.31 175.618 179.73 175.618 179.01V177.15H178.018V179.34H185.668V181.41H178.228ZM184.169 189.15H186.749L191.099 198.99H191.189C192.449 198.99 193.419 198.56 194.099 197.7C194.799 196.82 195.149 195.6 195.149 194.04V191.58C195.149 190.04 194.799 188.84 194.099 187.98C193.419 187.12 192.449 186.69 191.189 186.69H190.229V184.62H191.219C193.279 184.62 194.879 185.34 196.019 186.78C197.159 188.22 197.729 190.23 197.729 192.81C197.729 195.39 197.159 197.4 196.019 198.84C194.899 200.28 193.309 201 191.249 201H189.389L184.169 189.15ZM201.927 190.74C201.927 189.76 202.087 188.87 202.407 188.07C202.747 187.27 203.227 186.59 203.847 186.03C204.467 185.45 205.217 185.01 206.097 184.71C206.977 184.41 207.967 184.26 209.067 184.26C210.147 184.26 211.127 184.41 212.007 184.71C212.887 185.01 213.637 185.45 214.257 186.03C214.877 186.59 215.357 187.27 215.697 188.07C216.037 188.87 216.207 189.76 216.207 190.74V201H213.807V190.98C213.807 189.48 213.387 188.33 212.547 187.53C211.727 186.73 210.567 186.33 209.067 186.33C207.567 186.33 206.397 186.73 205.557 187.53C204.737 188.33 204.327 189.48 204.327 190.98V194.88H204.477C204.617 194.5 204.807 194.14 205.047 193.8C205.287 193.44 205.587 193.13 205.947 192.87C206.307 192.59 206.727 192.37 207.207 192.21C207.707 192.05 208.277 191.97 208.917 191.97H209.907V194.37H208.527C207.247 194.37 206.227 194.62 205.467 195.12C204.707 195.62 204.327 196.31 204.327 197.19V201H201.927V190.74ZM213.917 206.31H211.937V204.39H214.487C215.087 204.39 215.527 204.55 215.807 204.87C216.067 205.19 216.197 205.62 216.197 206.16V211.32H213.917V206.31ZM227.12 201.36C225.12 201.36 223.56 200.93 222.44 200.07C221.34 199.21 220.79 198 220.79 196.44C220.79 195.44 221.08 194.62 221.66 193.98C222.24 193.32 222.97 192.87 223.85 192.63V192.48C222.87 192.26 222.09 191.81 221.51 191.13C220.95 190.43 220.67 189.56 220.67 188.52C220.67 187.24 221.06 186.21 221.84 185.43C222.64 184.65 223.74 184.26 225.14 184.26C225.56 184.26 225.99 184.3 226.43 184.38C226.89 184.44 227.31 184.57 227.69 184.77L227.18 186.6C226.62 186.38 226.09 186.27 225.59 186.27C224.71 186.27 224.04 186.51 223.58 186.99C223.14 187.45 222.92 188.05 222.92 188.79C222.92 189.11 222.96 189.43 223.04 189.75C223.12 190.07 223.27 190.36 223.49 190.62C223.71 190.86 224.01 191.06 224.39 191.22C224.79 191.38 225.31 191.46 225.95 191.46H227.69V193.17H225.95C225.19 193.17 224.55 193.39 224.03 193.83C223.53 194.27 223.28 194.91 223.28 195.75V196.5C223.28 197.4 223.61 198.1 224.27 198.6C224.93 199.08 225.88 199.32 227.12 199.32C228.58 199.32 229.72 198.95 230.54 198.21C231.38 197.45 231.8 196.36 231.8 194.94V184.62H234.2V195.3C234.2 196.22 234.03 197.06 233.69 197.82C233.37 198.56 232.9 199.19 232.28 199.71C231.66 200.23 230.91 200.64 230.03 200.94C229.17 201.22 228.2 201.36 227.12 201.36ZM242.618 201C241.778 201 241.138 200.77 240.698 200.31C240.278 199.85 240.068 199.24 240.068 198.48V184.62H242.468V198.9H244.988V201H242.618ZM250.418 201C249.578 201 248.938 200.77 248.498 200.31C248.078 199.85 247.868 199.24 247.868 198.48V184.62H250.268V198.9H252.788V201H250.418ZM262.663 201.36C260.383 201.36 258.643 200.61 257.443 199.11C256.263 197.59 255.673 195.47 255.673 192.75C255.673 190.07 256.073 187.99 256.873 186.51C257.673 185.01 258.923 184.26 260.623 184.26C261.383 184.26 262.063 184.46 262.663 184.86C263.283 185.26 263.693 185.85 263.893 186.63H264.013C264.233 185.85 264.643 185.26 265.243 184.86C265.863 184.46 266.563 184.26 267.343 184.26C268.543 184.26 269.463 184.64 270.103 185.4C270.763 186.16 271.093 187.22 271.093 188.58V201H268.693V188.61C268.693 187.83 268.523 187.26 268.183 186.9C267.863 186.52 267.403 186.33 266.803 186.33C266.443 186.33 266.133 186.4 265.873 186.54C265.613 186.66 265.403 186.84 265.243 187.08C265.083 187.3 264.953 187.56 264.853 187.86C264.753 188.14 264.683 188.43 264.643 188.73H263.083C263.043 188.43 262.983 188.14 262.903 187.86C262.823 187.58 262.703 187.33 262.543 187.11C262.383 186.87 262.173 186.68 261.913 186.54C261.653 186.4 261.333 186.33 260.953 186.33C260.433 186.33 260.003 186.46 259.663 186.72C259.323 186.98 259.043 187.34 258.823 187.8C258.623 188.26 258.473 188.81 258.373 189.45C258.293 190.07 258.253 190.75 258.253 191.49V193.89C258.253 195.55 258.633 196.87 259.393 197.85C260.173 198.81 261.403 199.29 263.083 199.29C263.303 199.29 263.533 199.28 263.773 199.26C264.033 199.24 264.283 199.21 264.523 199.17L264.823 201.18C264.443 201.26 264.063 201.31 263.683 201.33C263.323 201.35 262.983 201.36 262.663 201.36ZM268.76 175.86H271.1V181.41H268.76V175.86ZM280.47 201C279.61 201 278.96 200.77 278.52 200.31C278.1 199.85 277.89 199.24 277.89 198.48V181.47C277.89 180.83 277.97 180.27 278.13 179.79C278.29 179.31 278.5 178.9 278.76 178.56C279.02 178.22 279.32 177.94 279.66 177.72C280 177.48 280.36 177.29 280.74 177.15V177.03H274.2V175.05H283.53V177.03H283.23C282.27 177.03 281.54 177.3 281.04 177.84C280.54 178.38 280.29 179.14 280.29 180.12V198.9H282.81V201H280.47ZM293.742 201.36C293.042 201.36 292.432 201.27 291.912 201.09C291.392 200.93 290.942 200.71 290.562 200.43C290.182 200.15 289.862 199.83 289.602 199.47C289.362 199.11 289.162 198.73 289.002 198.33H288.852V201H286.452V184.62H288.852V195.96C288.852 196.52 288.972 197.01 289.212 197.43C289.452 197.85 289.762 198.2 290.142 198.48C290.542 198.76 290.982 198.97 291.462 199.11C291.962 199.25 292.472 199.32 292.992 199.32C294.312 199.32 295.302 198.94 295.962 198.18C296.642 197.4 296.982 196.26 296.982 194.76V184.62H299.382V195.06C299.382 197.08 298.882 198.64 297.882 199.74C296.882 200.82 295.502 201.36 293.742 201.36ZM297.031 175.86H299.371V181.41H297.031V175.86ZM308.742 201C307.882 201 307.232 200.77 306.792 200.31C306.372 199.85 306.162 199.24 306.162 198.48V181.47C306.162 180.83 306.242 180.27 306.402 179.79C306.562 179.31 306.772 178.9 307.032 178.56C307.292 178.22 307.592 177.94 307.932 177.72C308.272 177.48 308.632 177.29 309.012 177.15V177.03H302.472V175.05H311.802V177.03H311.502C310.542 177.03 309.812 177.3 309.312 177.84C308.812 178.38 308.562 179.14 308.562 180.12V198.9H311.082V201H308.742ZM320.994 201.36C319.874 201.36 318.874 201.16 317.994 200.76C317.134 200.36 316.404 199.8 315.804 199.08C315.204 198.34 314.744 197.44 314.424 196.38C314.124 195.32 313.974 194.13 313.974 192.81C313.974 191.53 314.154 190.36 314.514 189.3C314.874 188.24 315.384 187.34 316.044 186.6C316.724 185.86 317.544 185.29 318.504 184.89C319.464 184.47 320.544 184.26 321.744 184.26C322.824 184.26 323.804 184.42 324.684 184.74C325.584 185.06 326.344 185.52 326.964 186.12C327.604 186.7 328.094 187.41 328.434 188.25C328.774 189.07 328.944 189.99 328.944 191.01V201H326.544V191.34C326.544 189.76 326.104 188.53 325.224 187.65C324.364 186.77 323.174 186.33 321.654 186.33C320.054 186.33 318.804 186.82 317.904 187.8C317.004 188.76 316.554 190.07 316.554 191.73V193.89C316.554 195.65 316.954 196.99 317.754 197.91C318.554 198.83 319.784 199.29 321.444 199.29C321.664 199.29 321.884 199.29 322.104 199.29C322.344 199.27 322.584 199.23 322.824 199.17L323.124 201.18C322.784 201.28 322.424 201.33 322.044 201.33C321.664 201.35 321.314 201.36 320.994 201.36ZM324.222 179.34H326.502V178.23C326.502 177.71 326.392 177.35 326.172 177.15C325.932 176.93 325.542 176.82 325.002 176.82H324.222V175.02H325.902C326.802 175.02 327.492 175.22 327.972 175.62C328.432 176.02 328.662 176.55 328.662 177.21C328.662 177.57 328.572 177.95 328.392 178.35C328.212 178.75 327.932 179.04 327.552 179.22V179.34H332.802V181.14H324.222V179.34ZM333.734 190.74C333.734 189.76 333.894 188.87 334.214 188.07C334.554 187.27 335.034 186.59 335.654 186.03C336.274 185.45 337.024 185.01 337.904 184.71C338.784 184.41 339.774 184.26 340.874 184.26C341.954 184.26 342.934 184.41 343.814 184.71C344.694 185.01 345.444 185.45 346.064 186.03C346.684 186.59 347.164 187.27 347.504 188.07C347.844 188.87 348.014 189.76 348.014 190.74V201H345.614V190.98C345.614 189.48 345.194 188.33 344.354 187.53C343.534 186.73 342.374 186.33 340.874 186.33C339.374 186.33 338.204 186.73 337.364 187.53C336.544 188.33 336.134 189.48 336.134 190.98V194.88H336.284C336.424 194.5 336.614 194.14 336.854 193.8C337.094 193.44 337.394 193.13 337.754 192.87C338.114 192.59 338.534 192.37 339.014 192.21C339.514 192.05 340.084 191.97 340.724 191.97H341.714V194.37H340.334C339.054 194.37 338.034 194.62 337.274 195.12C336.514 195.62 336.134 196.31 336.134 197.19V201H333.734V190.74ZM359.646 201.36C357.526 201.36 355.856 200.79 354.636 199.65C353.416 198.49 352.806 196.91 352.806 194.91V184.62H355.206V194.67C355.206 196.17 355.596 197.32 356.376 198.12C357.176 198.9 358.266 199.29 359.646 199.29C361.026 199.29 362.106 198.9 362.886 198.12C363.686 197.32 364.086 196.17 364.086 194.67V184.62H366.486V194.91C366.486 196.91 365.876 198.49 364.656 199.65C363.436 200.79 361.766 201.36 359.646 201.36Z" fill="#FF994E"/>
</svg>
