<svg width="98" height="88" viewBox="0 0 98 88" fill="none" xmlns="http://www.w3.org/2000/svg">
<g filter="url(#filter0_d_9_2107)">
<circle cx="54.5" cy="44.5" r="37.5" fill="#FF994E"/>
</g>
<g clip-path="url(#clip0_9_2107)">
<path d="M50.899 52.0938C48.3679 52.1722 46.2977 53.1767 44.6885 55.1071H41.548C40.2669 55.1071 39.1888 54.7893 38.3139 54.1537C37.4389 53.518 37.0015 52.5881 37.0015 51.3639C37.0015 45.8237 37.9702 43.0536 39.9075 43.0536C40.0013 43.0536 40.3411 43.2184 40.927 43.548C41.5129 43.8775 42.2746 44.2111 43.212 44.5485C44.1494 44.8859 45.0791 45.0547 46.0009 45.0547C47.0477 45.0547 48.0867 44.8742 49.1178 44.5132C49.0397 45.0939 49.0007 45.6118 49.0007 46.067C49.0007 48.2485 49.6334 50.2575 50.899 52.0938ZM75.9989 67.0901C75.9989 68.9735 75.4286 70.4605 74.288 71.5513C73.1475 72.6421 71.632 73.1875 69.7415 73.1875H49.2585C47.368 73.1875 45.8524 72.6421 44.7119 71.5513C43.5713 70.4605 43.0011 68.9735 43.0011 67.0901C43.0011 66.2583 43.0284 65.4461 43.0831 64.6535C43.1378 63.8609 43.2471 63.0055 43.4112 62.0874C43.5752 61.1692 43.7823 60.3178 44.0322 59.5331C44.2822 58.7483 44.6181 57.9832 45.04 57.2377C45.4618 56.4922 45.9462 55.8566 46.493 55.3308C47.0399 54.805 47.7078 54.3852 48.4968 54.0713C49.2858 53.7574 50.1568 53.6004 51.1099 53.6004C51.2661 53.6004 51.6021 53.7692 52.1176 54.1066C52.6332 54.444 53.2035 54.8207 53.8285 55.2366C54.4534 55.6525 55.2893 56.0292 56.3361 56.3666C57.3829 56.7041 58.4375 56.8728 59.5 56.8728C60.5624 56.8728 61.617 56.7041 62.6638 56.3666C63.7106 56.0292 64.5465 55.6525 65.1715 55.2366C65.7964 54.8207 66.3667 54.444 66.8823 54.1066C67.3979 53.7692 67.7338 53.6004 67.89 53.6004C68.8431 53.6004 69.7141 53.7574 70.5031 54.0713C71.2921 54.3852 71.9601 54.805 72.5069 55.3308C73.0537 55.8566 73.5381 56.4922 73.9599 57.2377C74.3818 57.9832 74.7177 58.7483 74.9677 59.5331C75.2177 60.3178 75.4247 61.1692 75.5887 62.0874C75.7528 63.0055 75.8622 63.8609 75.9168 64.6535C75.9715 65.4461 75.9989 66.2583 75.9989 67.0901ZM52.0005 37.0268C52.0005 38.6904 51.4146 40.1108 50.2428 41.2879C49.071 42.465 47.657 43.0536 46.0009 43.0536C44.3447 43.0536 42.9308 42.465 41.759 41.2879C40.5872 40.1108 40.0013 38.6904 40.0013 37.0268C40.0013 35.3631 40.5872 33.9428 41.759 32.7657C42.9308 31.5886 44.3447 31 46.0009 31C47.657 31 49.071 31.5886 50.2428 32.7657C51.4146 33.9428 52.0005 35.3631 52.0005 37.0268ZM68.4994 46.067C68.4994 48.5624 67.6205 50.693 65.8628 52.4587C64.1051 54.2243 61.9842 55.1071 59.5 55.1071C57.0158 55.1071 54.8948 54.2243 53.1371 52.4587C51.3794 50.693 50.5006 48.5624 50.5006 46.067C50.5006 43.5715 51.3794 41.4409 53.1371 39.6753C54.8948 37.9096 57.0158 37.0268 59.5 37.0268C61.9842 37.0268 64.1051 37.9096 65.8628 39.6753C67.6205 41.4409 68.4994 43.5715 68.4994 46.067ZM81.9985 51.3639C81.9985 52.5881 81.561 53.518 80.6861 54.1537C79.8111 54.7893 78.7331 55.1071 77.4519 55.1071H74.3115C72.7022 53.1767 70.632 52.1722 68.101 52.0938C69.3665 50.2575 69.9993 48.2485 69.9993 46.067C69.9993 45.6118 69.9602 45.0939 69.8821 44.5132C70.9133 44.8742 71.9523 45.0547 72.9991 45.0547C73.9209 45.0547 74.8505 44.8859 75.7879 44.5485C76.7254 44.2111 77.487 43.8775 78.0729 43.548C78.6588 43.2184 78.9987 43.0536 79.0924 43.0536C81.0298 43.0536 81.9985 45.8237 81.9985 51.3639ZM78.9987 37.0268C78.9987 38.6904 78.4128 40.1108 77.241 41.2879C76.0692 42.465 74.6552 43.0536 72.9991 43.0536C71.3429 43.0536 69.929 42.465 68.7572 41.2879C67.5854 40.1108 66.9995 38.6904 66.9995 37.0268C66.9995 35.3631 67.5854 33.9428 68.7572 32.7657C69.929 31.5886 71.3429 31 72.9991 31C74.6552 31 76.0692 31.5886 77.241 32.7657C78.4128 33.9428 78.9987 35.3631 78.9987 37.0268Z" fill="#F8F8F8"/>
</g>
<g clip-path="url(#clip1_9_2107)">
<path d="M29.9766 10.3031C29.9766 7.94063 28.05 6 25.6734 6C23.2969 6 21.3563 7.94063 21.3703 10.3031V21.3703H10.3031C7.94063 21.3703 6 23.2969 6 25.6734C6 28.0359 7.94063 29.9766 10.3031 29.9766H21.3703V41.0297C21.3703 43.3922 23.2969 45.3328 25.6734 45.3328C28.0359 45.3328 29.9766 43.4063 29.9766 41.0297V29.9766H41.0297C43.3922 29.9766 45.3328 28.05 45.3328 25.6734C45.3328 23.3109 43.4063 21.3703 41.0297 21.3703H29.9766V10.3031Z" fill="#41EAAD"/>
</g>
<defs>
<filter id="filter0_d_9_2107" x="15" y="5" width="83" height="83" filterUnits="userSpaceOnUse" color-interpolation-filters="sRGB">
<feFlood flood-opacity="0" result="BackgroundImageFix"/>
<feColorMatrix in="SourceAlpha" type="matrix" values="0 0 0 0 0 0 0 0 0 0 0 0 0 0 0 0 0 0 127 0" result="hardAlpha"/>
<feOffset dx="2" dy="2"/>
<feGaussianBlur stdDeviation="2"/>
<feComposite in2="hardAlpha" operator="out"/>
<feColorMatrix type="matrix" values="0 0 0 0 0 0 0 0 0 0 0 0 0 0 0 0 0 0 0.25 0"/>
<feBlend mode="normal" in2="BackgroundImageFix" result="effect1_dropShadow_9_2107"/>
<feBlend mode="normal" in="SourceGraphic" in2="effect1_dropShadow_9_2107" result="shape"/>
</filter>
<clipPath id="clip0_9_2107">
<rect width="45" height="42.1875" fill="white" transform="translate(37 31)"/>
</clipPath>
<clipPath id="clip1_9_2107">
<rect width="45" height="45" fill="white"/>
</clipPath>
</defs>
</svg>
