<svg width="100" height="100" viewBox="0 0 105 110" fill="none" xmlns="http://www.w3.org/2000/svg">
<path d="M50 93.75C77.6125 93.75 100 74.1625 100 50C100 25.8375 77.6125 6.25 50 6.25C22.3875 6.25 0 25.8375 0 50C0 61 4.64375 71.0625 12.3125 78.75C11.7063 85.1 9.70625 92.0625 7.49375 97.2875C7 98.45 7.95625 99.75 9.2 99.55C23.3 97.2375 31.6812 93.6875 35.325 91.8375C40.1111 93.1185 45.0455 93.7616 50 93.75Z" fill="#F8F8F8" stroke="#FF994E" stroke-width="5" stroke-aligment="inner"/>
<path d="M43.7502 32.1667H35.4168V36.3333H31.2502V40.5H27.0835V53H31.2502V57.1667H35.4168V61.3333H39.5835V65.5H43.7502V69.6667H47.9168V73.8333H52.0835V69.6667H56.2502V65.5H60.4168V61.3333H64.5835V57.1667H68.7502V53H72.9168V40.5H68.7502V36.3333H64.5835V32.1667H56.2502V36.3333H52.0835V40.5H47.9168V36.3333H43.7502V32.1667ZM43.7502 36.3333V40.5H47.9168V44.6667H52.0835V40.5H56.2502V36.3333H64.5835V40.5H68.7502V53H64.5835V57.1667H60.4168V61.3333H56.2502V65.5H52.0835V69.6667H47.9168V65.5H43.7502V61.3333H39.5835V57.1667H35.4168V53H31.2502V40.5H35.4168V36.3333H43.7502Z" fill="#FF994E"/>
</svg>
