<svg width="30" height="30" viewBox="0 0 30 30" fill="none" xmlns="http://www.w3.org/2000/svg">
<path d="M30 15C30 23.2843 23.3624 30 15.1744 30C6.98648 30 0 25.9313 0 17.6471C3.13953 17.6471 15.1744 15 15.1744 0C23.3624 0 30 6.71573 30 15Z" fill="white"/>
<g clip-path="url(#clip0_94_369)">
<path d="M25.3335 16.2834C25.2604 16.2838 25.1879 16.2698 25.1202 16.2421C25.0525 16.2145 24.991 16.1737 24.9391 16.1222L17.9446 9.12224C17.8536 9.01596 17.806 8.87926 17.8114 8.73944C17.8169 8.59962 17.8748 8.46698 17.9738 8.36804C18.0727 8.2691 18.2053 8.21114 18.3451 8.20574C18.485 8.20034 18.6217 8.24789 18.728 8.33891L25.728 15.3334C25.8063 15.4111 25.8597 15.5103 25.8814 15.6185C25.9031 15.7267 25.8921 15.8389 25.8498 15.9408C25.8075 16.0428 25.7358 16.1298 25.6439 16.1908C25.5519 16.2518 25.4439 16.284 25.3335 16.2834Z" fill="#2260FF"/>
<path d="M18.3556 11.2167L14.5834 14.9889C13.5792 14.7468 12.5299 14.7646 11.5345 15.0407C10.5392 15.3167 9.63057 15.8419 8.89454 16.5667C8.84247 16.6183 8.80114 16.6798 8.77293 16.7475C8.74473 16.8152 8.73021 16.8878 8.73021 16.9611C8.73021 17.0345 8.74473 17.1071 8.77293 17.1748C8.80114 17.2425 8.84247 17.3039 8.89454 17.3556L12.4056 20.8889L8.27232 25.0056C8.21416 25.0554 8.16693 25.1167 8.13358 25.1856C8.10023 25.2545 8.08149 25.3296 8.07854 25.4061C8.07558 25.4826 8.08848 25.5589 8.11641 25.6302C8.14434 25.7015 8.1867 25.7662 8.24084 25.8204C8.29498 25.8745 8.35973 25.9169 8.43103 25.9448C8.50232 25.9727 8.57861 25.9856 8.65512 25.9827C8.73163 25.9797 8.80671 25.961 8.87563 25.9276C8.94456 25.8943 9.00585 25.8471 9.05565 25.7889L13.189 21.6556L16.7056 25.1722C16.7576 25.2237 16.8191 25.2645 16.8868 25.2921C16.9545 25.3197 17.027 25.3338 17.1001 25.3333C17.1736 25.333 17.2463 25.3181 17.314 25.2895C17.3817 25.2609 17.4431 25.2192 17.4945 25.1667C18.2166 24.4289 18.7401 23.5202 19.016 22.5254C19.2919 21.5306 19.3112 20.4821 19.0723 19.4778L22.8445 15.7056L18.3556 11.2167Z" fill="#2260FF"/>
</g>
<defs>
<clipPath id="clip0_94_369">
<rect width="20" height="20" fill="white" transform="translate(7 7)"/>
</clipPath>
</defs>
</svg>
