<svg width="50" height="50" viewBox="0 0 50 50" fill="none" xmlns="http://www.w3.org/2000/svg">
<g filter="url(#filter0_i_9_2366)">
<circle cx="25" cy="25" r="25" fill="#2260FF"/>
</g>
<g clip-path="url(#clip0_9_2366)">
<path d="M43.0833 23.2459C42.9553 23.2467 42.8285 23.2221 42.71 23.1738C42.5916 23.1254 42.4838 23.0541 42.393 22.964L30.1527 10.714C29.9934 10.528 29.9102 10.2888 29.9197 10.0441C29.9291 9.79939 30.0306 9.56728 30.2037 9.39413C30.3769 9.22099 30.609 9.11955 30.8536 9.1101C31.0983 9.10065 31.3376 9.18388 31.5236 9.34315L43.7736 21.5834C43.9107 21.7194 44.0042 21.8932 44.0422 22.0825C44.0801 22.2718 44.0609 22.4682 43.9868 22.6465C43.9128 22.8249 43.7873 22.9771 43.6264 23.0839C43.4654 23.1906 43.2764 23.2471 43.0833 23.2459Z" fill="#D9D9D9"/>
<path d="M30.8724 14.3792L24.271 20.9805C22.5137 20.5568 20.6774 20.588 18.9355 21.0711C17.1935 21.5542 15.6035 22.4733 14.3154 23.7416C14.2243 23.832 14.152 23.9396 14.1026 24.058C14.0533 24.1765 14.0279 24.3036 14.0279 24.4319C14.0279 24.5603 14.0533 24.6873 14.1026 24.8058C14.152 24.9243 14.2243 25.0318 14.3154 25.1222L20.4599 31.3055L13.2266 38.5097C13.1248 38.5969 13.0421 38.7041 12.9838 38.8247C12.9254 38.9454 12.8926 39.0767 12.8874 39.2106C12.8823 39.3445 12.9048 39.478 12.9537 39.6028C13.0026 39.7276 13.0767 39.8409 13.1715 39.9356C13.2662 40.0304 13.3795 40.1045 13.5043 40.1534C13.6291 40.2023 13.7626 40.2248 13.8965 40.2196C14.0304 40.2145 14.1617 40.1817 14.2824 40.1233C14.403 40.065 14.5102 39.9823 14.5974 39.8805L21.8307 32.6472L27.9849 38.8014C28.0757 38.8915 28.1835 38.9628 28.3019 39.0111C28.4204 39.0595 28.5472 39.0841 28.6752 39.0833C28.8038 39.0828 28.931 39.0567 29.0495 39.0067C29.168 38.9566 29.2754 38.8835 29.3654 38.7917C30.6291 37.5005 31.5451 35.9103 32.0279 34.1694C32.5107 32.4285 32.5447 30.5937 32.1266 28.8361L38.7279 22.2347L30.8724 14.3792Z" fill="#D9D9D9"/>
</g>
<defs>
<filter id="filter0_i_9_2366" x="0" y="0" width="52" height="52" filterUnits="userSpaceOnUse" color-interpolation-filters="sRGB">
<feFlood flood-opacity="0" result="BackgroundImageFix"/>
<feBlend mode="normal" in="SourceGraphic" in2="BackgroundImageFix" result="shape"/>
<feColorMatrix in="SourceAlpha" type="matrix" values="0 0 0 0 0 0 0 0 0 0 0 0 0 0 0 0 0 0 127 0" result="hardAlpha"/>
<feOffset dx="3" dy="3"/>
<feGaussianBlur stdDeviation="1"/>
<feComposite in2="hardAlpha" operator="arithmetic" k2="-1" k3="1"/>
<feColorMatrix type="matrix" values="0 0 0 0 0 0 0 0 0 0 0 0 0 0 0 0 0 0 0.25 0"/>
<feBlend mode="normal" in2="shape" result="effect1_innerShadow_9_2366"/>
</filter>
<clipPath id="clip0_9_2366">
<rect width="35" height="35" fill="white" transform="translate(11 7)"/>
</clipPath>
</defs>
</svg>
