<svg width="80" height="80" viewBox="0 0 80 80" fill="none" xmlns="http://www.w3.org/2000/svg">
<path d="M29.9997 6.6665H16.6663V13.3332H9.99967V19.9998H3.33301V39.9998H9.99967V46.6665H16.6663V53.3332H23.333V59.9998H29.9997V66.6665H36.6663V73.3332H43.333V66.6665H49.9997V59.9998H56.6663V53.3332H63.333V46.6665H69.9997V39.9998H76.6663V19.9998H69.9997V13.3332H63.333V6.6665H49.9997V13.3332H43.333V19.9998H36.6663V13.3332H29.9997V6.6665ZM29.9997 13.3332V19.9998H36.6663V26.6665H43.333V19.9998H49.9997V13.3332H63.333V19.9998H69.9997V39.9998H63.333V46.6665H56.6663V53.3332H49.9997V59.9998H43.333V66.6665H36.6663V59.9998H29.9997V53.3332H23.333V46.6665H16.6663V39.9998H9.99967V19.9998H16.6663V13.3332H29.9997Z" fill="white"/>
</svg>
