<svg width="50" height="50" viewBox="0 0 50 50" fill="none" xmlns="http://www.w3.org/2000/svg">
<g filter="url(#filter0_i_12_4361)">
<circle cx="25" cy="25" r="25" fill="#D9D9D9"/>
</g>
<path d="M25.7424 11.8441C25.5511 11.8435 25.3613 11.8479 25.1728 11.8575C18.5645 12.189 13.0473 17.7999 10.2813 24.9825C7.51535 32.1643 10.3438 41.3867 16.4566 41.2164C22.5693 41.0455 17.6932 34.4078 20.9332 31.2278C22.5974 29.594 24.9563 30.1696 27.3731 30.8422L26.17 29.2713L25.8829 28.8967C25.7886 28.9008 25.6922 28.9037 25.5917 28.9029C25.0284 28.8985 24.3735 28.8659 23.8656 28.4006C22.9161 27.5304 22.8812 26.2607 22.9031 25.1257C22.925 23.9906 22.9797 22.9125 22.6263 22.2144L22.2366 21.4461L23.0976 21.4208C23.1691 21.4186 23.2409 21.4174 23.3129 21.4172C24.393 21.4122 25.5212 21.6069 26.5199 22.0345C27.5852 22.4904 28.5197 23.2266 28.9914 24.2939C29.2771 24.9406 29.2419 25.6691 29.034 26.3289C28.9904 26.4658 28.9393 26.6002 28.8809 26.7315L32.6338 31.6315C33.0583 31.5597 33.4667 31.4308 33.8536 31.2268C37.0043 29.5648 40.5059 25.9146 39.8877 22.4064C38.8732 16.6485 31.6709 11.8613 25.7414 11.8435L25.7424 11.8441ZM29.898 14.5708C30.3479 14.5907 30.773 14.7582 31.1225 15.0535C31.3621 15.2559 31.5605 15.5135 31.7062 15.8115C31.8519 16.1096 31.9421 16.4423 31.9717 16.7906C32.0014 17.1389 31.9698 17.496 31.8788 17.8415C31.7878 18.187 31.6392 18.5142 31.4415 18.8043C31.2437 19.0945 31.0007 19.3419 30.7263 19.5325C30.452 19.7231 30.1516 19.8531 29.8423 19.9151C29.533 19.9772 29.221 19.97 28.9239 19.894C28.6268 19.818 28.3506 19.6747 28.111 19.4722C27.8714 19.2698 27.6731 19.0122 27.5274 18.7141C27.3816 18.4161 27.2914 18.0834 27.2618 17.7351C27.2322 17.3868 27.2638 17.0297 27.3548 16.6842C27.4458 16.3386 27.5944 16.0115 27.7921 15.7213C28.0444 15.3512 28.3694 15.0518 28.7374 14.8508C29.1053 14.6498 29.5044 14.5535 29.898 14.5708ZM21.7051 14.8762C22.2307 14.8918 22.7638 15.1491 23.2009 15.5983C23.638 16.0475 23.9479 16.6565 24.0706 17.3071C24.2017 18.003 24.1081 18.6915 23.8105 19.2211C23.5129 19.7507 23.0357 20.078 22.4837 20.131C22.2104 20.1572 21.927 20.1153 21.6496 20.0077C21.3722 19.9 21.1064 19.7287 20.8672 19.5036C20.628 19.2784 20.4202 19.0038 20.2556 18.6954C20.0911 18.387 19.973 18.0509 19.9081 17.7063C19.777 17.0103 19.8705 16.3218 20.1681 15.7922C20.4657 15.2626 20.943 14.9353 21.4949 14.8824C21.5642 14.8757 21.6342 14.8734 21.7048 14.8755L21.7051 14.8762ZM15.6669 20.3162C16.2872 20.3163 16.9104 20.5543 17.3996 20.978C17.8888 21.4016 18.2039 21.9763 18.2755 22.5755C18.3469 23.1747 18.1691 23.7493 17.7811 24.173C17.3931 24.5967 16.8268 24.8347 16.2066 24.8348C15.5863 24.8349 14.963 24.5969 14.4737 24.1732C13.9845 23.7495 13.6693 23.1748 13.5977 22.5755C13.5622 22.2787 13.5876 21.9849 13.6724 21.7107C13.7572 21.4365 13.8998 21.1873 14.0919 20.9775C14.2841 20.7676 14.5221 20.6011 14.7923 20.4876C15.0625 20.374 15.3597 20.3155 15.6669 20.3156V20.3162ZM35.7969 20.6212C36.3363 20.6475 36.828 20.8783 37.1921 21.2759C37.4039 21.5073 37.5668 21.789 37.6714 22.1049C37.776 22.4208 37.8204 22.7647 37.8019 23.1171C37.7834 23.4695 37.7024 23.8233 37.5636 24.1585C37.4248 24.4937 37.2309 24.8036 36.9929 25.0706C36.7549 25.3375 36.4775 25.5563 36.1766 25.7144C35.8756 25.8725 35.557 25.9668 35.239 25.992C34.9209 26.0172 34.6096 25.9727 34.3228 25.8611C34.036 25.7495 33.7794 25.573 33.5676 25.3417C33.3558 25.1103 33.1929 24.8286 33.0883 24.5127C32.9837 24.1968 32.9393 23.8529 32.9579 23.5005C32.9764 23.1481 33.0573 22.7943 33.1962 22.4591C33.335 22.1239 33.5289 21.814 33.7669 21.5471C34.0399 21.2408 34.3643 20.9984 34.7159 20.8381C35.0674 20.6778 35.4371 20.6036 35.7971 20.6212H35.7969ZM23.8919 22.5318C24.0958 23.4051 24.0139 24.3226 23.9977 25.1483C23.9766 26.2347 24.0479 27.0842 24.6055 27.5954C24.6868 27.6699 25.1536 27.8067 25.6005 27.8102C25.8239 27.812 26.0407 27.7952 26.1965 27.7736C26.2512 27.7664 26.3055 27.7567 26.3594 27.7446L27.2494 27.1046L27.2508 27.1036C27.5557 26.8869 27.8469 26.4631 27.9925 26.001C28.1381 25.5389 28.134 25.057 27.9925 24.737C27.6623 23.9899 26.978 23.4204 26.0907 23.041C25.4256 22.756 24.6552 22.5865 23.8916 22.5318L23.8919 22.5318ZM28.5031 28.2609L27.5208 29.0129L37.0078 41.4004L37.9894 40.6486L28.503 28.2612L28.5031 28.2609ZM14.8073 32.3734C15.5625 32.3734 16.3213 32.718 16.9169 33.3314C17.5125 33.9449 17.8961 34.7768 17.9833 35.6444C18.0264 36.074 17.9955 36.4994 17.8923 36.8963C17.789 37.2932 17.6155 37.6538 17.3816 37.9575C17.1476 38.2613 16.8579 38.5022 16.5289 38.6666C16.2 38.831 15.8382 38.9156 15.4642 38.9155C14.7091 38.9155 13.9502 38.5709 13.3546 37.9574C12.759 37.344 12.3754 36.512 12.2883 35.6444C12.2451 35.2148 12.2761 34.7894 12.3793 34.3926C12.4826 33.9957 12.6561 33.6351 12.89 33.3313C13.124 33.0276 13.4137 32.7867 13.7426 32.6223C14.0716 32.4579 14.4334 32.3734 14.8073 32.3734Z" fill="#2260FF"/>
<defs>
<filter id="filter0_i_12_4361" x="0" y="0" width="52" height="52" filterUnits="userSpaceOnUse" color-interpolation-filters="sRGB">
<feFlood flood-opacity="0" result="BackgroundImageFix"/>
<feBlend mode="normal" in="SourceGraphic" in2="BackgroundImageFix" result="shape"/>
<feColorMatrix in="SourceAlpha" type="matrix" values="0 0 0 0 0 0 0 0 0 0 0 0 0 0 0 0 0 0 127 0" result="hardAlpha"/>
<feOffset dx="3" dy="3"/>
<feGaussianBlur stdDeviation="1"/>
<feComposite in2="hardAlpha" operator="arithmetic" k2="-1" k3="1"/>
<feColorMatrix type="matrix" values="0 0 0 0 0 0 0 0 0 0 0 0 0 0 0 0 0 0 0.25 0"/>
<feBlend mode="normal" in2="shape" result="effect1_innerShadow_12_4361"/>
</filter>
</defs>
</svg>
