<svg width="28" height="28" viewBox="0 0 28 28" fill="none" xmlns="http://www.w3.org/2000/svg">
<mask id="mask0_12_4990" style="mask-type:luminance" maskUnits="userSpaceOnUse" x="0" y="0" width="28" height="28">
<path d="M14 26.5C15.6418 26.5021 17.2679 26.1798 18.7848 25.5515C20.3016 24.9231 21.6793 24.0012 22.8388 22.8388C24.0012 21.6793 24.9231 20.3016 25.5515 18.7848C26.1798 17.2679 26.5021 15.6418 26.5 14C26.5021 12.3582 26.1797 10.7321 25.5514 9.21528C24.9231 7.69843 24.0012 6.3207 22.8388 5.16126C21.6793 3.99878 20.3016 3.07688 18.7848 2.44856C17.2679 1.82024 15.6418 1.49788 14 1.50001C12.3582 1.49792 10.7321 1.82029 9.21528 2.44861C7.69843 3.07693 6.3207 3.99881 5.16126 5.16126C3.99881 6.3207 3.07693 7.69843 2.44861 9.21528C1.82029 10.7321 1.49792 12.3582 1.50001 14C1.49788 15.6418 1.82024 17.2679 2.44856 18.7848C3.07688 20.3016 3.99878 21.6793 5.16126 22.8388C6.3207 24.0012 7.69843 24.9231 9.21528 25.5514C10.7321 26.1797 12.3582 26.5021 14 26.5Z" fill="white" stroke="white" stroke-width="2.5" stroke-linejoin="round"/>
<path d="M9 14L12.75 17.75L20.25 10.25" stroke="black" stroke-width="2.5" stroke-linecap="round" stroke-linejoin="round"/>
</mask>
<g mask="url(#mask0_12_4990)">
<path d="M-1 -1H29V29H-1V-1Z" fill="#41EAAD"/>
</g>
</svg>
